<?xml version="1.0" standalone="no"?>
<!DOCTYPE svg PUBLIC "-//W3C//DTD SVG 20010904//EN"
 "http://www.w3.org/TR/2001/REC-SVG-20010904/DTD/svg10.dtd">
<svg version="1.0" xmlns="http://www.w3.org/2000/svg"
 width="88.000000pt" height="34.000000pt" viewBox="0 0 88.000000 34.000000"
 preserveAspectRatio="xMidYMid meet">

<g transform="translate(0.000000,34.000000) scale(0.100000,-0.100000)"
fill="#000000" stroke="none">
<path d="M0 170 l0 -170 440 0 440 0 0 170 0 170 -440 0 -440 0 0 -170z m240
106 c0 -7 9 -16 20 -19 26 -7 26 -37 0 -37 -11 0 -20 7 -20 15 0 8 -7 15 -15
15 -9 0 -12 -6 -9 -15 4 -8 10 -15 15 -15 5 0 9 -38 9 -85 l0 -85 -35 0 -35 0
0 85 0 85 -50 0 -50 0 0 35 0 35 85 0 c66 0 85 -3 85 -14z m40 4 c0 -5 -4 -10
-10 -10 -5 0 -10 5 -10 10 0 6 5 10 10 10 6 0 10 -4 10 -10z m70 -6 c0 -9 -9
-18 -20 -21 -11 -3 -20 -9 -20 -14 0 -5 -4 -9 -10 -9 -5 0 -10 7 -10 15 0 8 5
15 10 15 6 0 10 7 10 15 0 8 9 15 20 15 12 0 20 -7 20 -16z m96 -50 c-3 -9 -6
-24 -6 -35 0 -10 -4 -19 -10 -19 -5 0 -10 11 -10 25 0 14 -4 25 -10 25 -5 0
-10 5 -10 10 0 6 12 10 26 10 20 0 25 -4 20 -16z m75 0 c9 -11 10 -20 2 -32
-15 -24 -44 -27 -59 -7 -28 38 27 75 57 39z m32 4 c4 -10 8 -9 16 2 16 23 22
6 9 -28 -14 -36 -23 -40 -31 -14 -2 9 -8 25 -12 35 -4 9 -3 17 3 17 6 0 13 -6
15 -12z m167 2 c0 -6 -4 -10 -10 -10 -5 0 -10 -11 -10 -25 0 -14 -4 -25 -10
-25 -5 0 -10 11 -10 24 0 35 -18 42 -22 9 -2 -22 -8 -28 -27 -28 -31 0 -50 28
-33 48 14 17 122 23 122 7z m59 -21 c6 -18 11 -33 11 -33 0 -1 -16 -2 -35 -2
-39 0 -40 3 -23 41 15 34 34 32 47 -6z m-94 -103 c0 -14 -3 -22 -7 -20 -4 3
-8 17 -8 31 0 32 13 22 15 -11z m94 -17 c-8 -5 -20 -2 -30 7 -8 7 -21 14 -27
14 -15 0 -16 -16 -2 -23 6 -3 5 -4 -2 -3 -7 1 -14 12 -16 24 -3 19 1 21 32 20
20 -1 39 2 44 6 4 4 9 -2 10 -14 2 -13 -2 -26 -9 -31z m-132 33 c-10 -2 -16
-9 -14 -15 3 -7 10 -11 16 -9 7 1 9 -2 6 -8 -5 -8 -13 -6 -24 4 -20 18 -41 21
-41 6 0 -5 5 -10 12 -10 6 0 9 -2 6 -5 -9 -9 -38 7 -38 21 0 8 -7 14 -15 14
-8 0 -15 -7 -15 -15 0 -8 -4 -15 -10 -15 -5 0 -10 7 -10 15 0 8 -7 15 -15 15
-8 0 -15 -6 -15 -14 0 -18 -29 -29 -45 -16 -7 6 -15 6 -22 -1 -11 -11 -38 14
-29 29 3 5 65 9 138 9 73 -1 125 -3 115 -5z"/>
<path d="M477 214 c-9 -10 2 -24 19 -24 8 0 14 7 14 15 0 15 -21 21 -33 9z"/>
<path d="M610 205 c0 -10 7 -15 18 -13 21 4 19 22 -2 26 -10 2 -16 -3 -16 -13z"/>
<path d="M752 109 c2 -6 8 -10 13 -10 5 0 11 4 13 10 2 6 -4 11 -13 11 -9 0
-15 -5 -13 -11z"/>
<path d="M402 109 c2 -6 8 -10 13 -10 5 0 11 4 13 10 2 6 -4 11 -13 11 -9 0
-15 -5 -13 -11z"/>
<path d="M442 109 c2 -6 8 -10 13 -10 5 0 11 4 13 10 2 6 -4 11 -13 11 -9 0
-15 -5 -13 -11z"/>
</g>
</svg>
