<?xml version="1.0" standalone="no"?>
<!DOCTYPE svg PUBLIC "-//W3C//DTD SVG 20010904//EN"
 "http://www.w3.org/TR/2001/REC-SVG-20010904/DTD/svg10.dtd">
<svg version="1.0" xmlns="http://www.w3.org/2000/svg"
 width="512.000000pt" height="512.000000pt" viewBox="0 0 512.000000 512.000000"
 preserveAspectRatio="xMidYMid meet">
<metadata>
Created by potrace 1.14, written by Peter Selinger 2001-2017
</metadata>
<g transform="translate(0.000000,512.000000) scale(0.100000,-0.100000)"
fill="#000000" stroke="none">
<path d="M536 4869 c-62 -15 -153 -68 -197 -116 -22 -24 -55 -74 -72 -111
l-32 -67 0 -2011 0 -2010 37 -76 c45 -91 103 -147 196 -191 l67 -32 2021 0
2020 0 76 37 c91 45 147 103 191 196 l32 67 0 2010 0 2010 -32 67 c-44 93
-100 151 -191 196 l-76 37 -2000 2 c-1185 0 -2017 -3 -2040 -8z m1086 -1256
c14 -12 18 -31 18 -84 0 -92 -8 -99 -120 -99 l-88 0 82 -187 c46 -104 108
-246 139 -318 31 -71 96 -222 145 -335 49 -113 135 -313 192 -445 57 -132 106
-243 109 -247 5 -6 333 596 343 628 2 6 -96 212 -216 457 l-220 447 -62 0
c-77 0 -87 10 -89 97 -2 108 -19 103 337 103 355 0 338 5 338 -101 0 -85 -12
-99 -85 -99 l-53 0 118 -260 c66 -143 122 -265 125 -271 5 -8 272 465 292 518
4 10 -17 13 -88 13 -120 0 -129 7 -129 101 0 103 -13 99 334 99 344 0 326 6
326 -106 0 -88 -7 -94 -103 -94 l-64 0 -218 -397 c-120 -218 -218 -402 -218
-407 0 -13 37 -90 217 -460 l135 -279 20 44 c10 24 164 366 341 759 177 393
325 721 327 728 4 9 -22 12 -110 12 -108 0 -117 1 -131 22 -24 34 -21 133 4
158 19 19 33 20 375 20 415 0 395 5 395 -99 0 -93 -11 -100 -149 -103 l-114
-3 -487 -1035 c-442 -942 -488 -1035 -511 -1038 -15 -2 -32 5 -41 15 -8 10
-116 217 -238 461 -123 243 -225 440 -228 437 -3 -2 -116 -208 -251 -457 -240
-441 -247 -453 -276 -453 -28 0 -33 7 -90 120 -33 66 -131 269 -217 450 -86
182 -254 535 -373 785 -120 250 -244 511 -276 579 -33 68 -59 127 -59 132 0 5
-55 9 -123 9 -82 0 -127 4 -135 12 -7 7 -12 43 -12 90 0 63 3 79 18 87 11 7
165 11 421 11 363 0 406 -2 423 -17z"/>
</g>
</svg>
